<svg width="30" height="30" viewBox="0 0 30 30" fill="none" xmlns="http://www.w3.org/2000/svg">
<g clip-path="url(#clip0_5_53)">
<path fill-rule="evenodd" clip-rule="evenodd" d="M3.53437 0.958034C3.86245 0.63045 4.2564 0.376331 4.69012 0.212515C5.12383 0.0486998 5.58741 -0.0210708 6.05013 0.00782712C6.51286 0.036725 6.96415 0.163632 7.37412 0.380137C7.78408 0.596642 8.14335 0.897802 8.42812 1.26366L11.7937 5.58741C12.4106 6.38053 12.6281 7.41366 12.3844 8.38866L11.3587 12.4949C11.3057 12.7076 11.3086 12.9304 11.3671 13.1416C11.4255 13.3529 11.5377 13.5454 11.6925 13.7005L16.2994 18.3074C16.4547 18.4626 16.6475 18.5749 16.8592 18.6334C17.0708 18.6918 17.2939 18.6945 17.5069 18.6412L21.6112 17.6155C22.0924 17.4952 22.5946 17.4859 23.0799 17.5882C23.5652 17.6905 24.0209 17.9018 24.4125 18.2062L28.7362 21.5699C30.2906 22.7793 30.4331 25.0762 29.0419 26.4655L27.1031 28.4043C25.7156 29.7918 23.6419 30.4012 21.7087 29.7205C16.761 27.9796 12.2686 25.1471 8.565 21.433C4.85116 17.7299 2.01864 13.2383 0.277498 8.29116C-0.401252 6.35991 0.208123 4.28428 1.59562 2.89678L3.53437 0.958034Z" fill="#333333"/>
</g>
<defs>
<clipPath id="clip0_5_53">
<rect width="30" height="30" fill="white"/>
</clipPath>
</defs>
</svg>
