<svg width="40" height="40" viewBox="0 0 40 40" fill="none" xmlns="http://www.w3.org/2000/svg">
<path d="M20 35C17.8949 33.2044 15.9437 31.2358 14.1667 29.115C11.5 25.93 8.33334 21.1867 8.33334 16.6667C8.33219 14.3583 9.01586 12.1014 10.2978 10.1817C11.5798 8.262 13.4025 6.76575 15.5351 5.88232C17.6678 4.99889 20.0146 4.76797 22.2785 5.21881C24.5425 5.66965 26.6218 6.78196 28.2533 8.41499C29.3396 9.49642 30.2006 10.7826 30.7865 12.1989C31.3724 13.6153 31.6716 15.1339 31.6667 16.6667C31.6667 21.1867 28.5 25.93 25.8333 29.115C24.0564 31.2358 22.1051 33.2044 20 35ZM20 11.6667C18.6739 11.6667 17.4022 12.1934 16.4645 13.1311C15.5268 14.0688 15 15.3406 15 16.6667C15 17.9927 15.5268 19.2645 16.4645 20.2022C17.4022 21.1399 18.6739 21.6667 20 21.6667C21.3261 21.6667 22.5979 21.1399 23.5355 20.2022C24.4732 19.2645 25 17.9927 25 16.6667C25 15.3406 24.4732 14.0688 23.5355 13.1311C22.5979 12.1934 21.3261 11.6667 20 11.6667Z" fill="#3E1200"/>
</svg>
